{"title":"The Last Sharknado Its About Time 2018 1080p BluRay x264 DTS MW","magnet":"magnet:?xt=urn:btih:f91040a2071d6ef343bb752fa61ee8e8f915c64d&dn=The+Last+Sharknado+Its+About+Time+2018+1080p+BluRay+x264+DTS+MW&tr=udp%3A%2F%2Ftracker.leechers-paradise.org%3A6969&tr=udp%3A%2F%2Fzer0day.ch%3A1337&tr=udp%3A%2F%2Fopen.demonii.com%3A1337&tr=udp%3A%2F%2Ftracker.coppersurfer.tk%3A6969&tr=udp%3A%2F%2Fexodus.desync.com%3A6969","uploader":"MFreaky","categoryP":"video","categoryS":"hd___movies","size":"2684975814","seeders":"6","leechers":"9","description":" <a href=\"https://pichub.site/image/Es3xv\" rel=\"nofollow\" target=\"_NEW\">https://pichub.site/image/Es3xv</a> <a href=\"\nhttps://pichub.site/image/Es9D9\" rel=\"nofollow\" target=\"_NEW\">\nhttps://pichub.site/image/Es9D9</a> <a href=\"\nhttps://pichub.site/image/EsZTd\" rel=\"nofollow\" target=\"_NEW\">\nhttps://pichub.site/image/EsZTd</a> <a href=\"\nhttps://pichub.site/image/EsHmu\" rel=\"nofollow\" target=\"_NEW\">\nhttps://pichub.site/image/EsHmu</a> <a href=\"\nhttps://pichub.site/image/EsQYs\" rel=\"nofollow\" target=\"_NEW\">\nhttps://pichub.site/image/EsQYs</a>\r\n\r\nIMDB <a href=\"\nhttps://www.imdb.com/title/tt8031422/\" rel=\"nofollow\" target=\"_NEW\">\nhttps://www.imdb.com/title/tt8031422/</a>\r\n\r\nVideo\r\nFormat                                   : AVC\r\nFormat/Info                              : Advanced Video Codec\r\nFormat profile                           : High@L4.1\r\nFormat settings                          : CABAC / 4 Ref Frames\r\nFormat settings, CABAC                   : Yes\r\nFormat settings, RefFrames               : 4 frames\r\nCodec ID                                 : V_MPEG4/ISO/AVC\r\nDuration                                 : 1 h 26 min\r\nBit rate                                 : 3 400 kb/s\r\nWidth                                    : 1 920 pixels\r\nHeight                                   : 1 080 pixels\r\nDisplay aspect ratio                     : 16:9\r\nFrame rate mode                          : Constant\r\nFrame rate                               : 23.976 (24000/1001) FPS\r\nColor space                              : YUV\r\nChroma subsampling                       : 4:2:0\r\nBit depth                                : 8 bits\r\nBits/(Pixel*Frame)                       : 0.068\r\nStream size                              : 2.04 GiB (82%)\r\nWriting library                          : x264 core 155 r2901 7d0ff22\r\n\r\nAudio\r\nFormat                                   : DTS\r\nFormat/Info                              : Digital Theater Systems\r\nCodec ID                                 : A_DTS\r\nDuration                                 : 1 h 26 min\r\nBit rate mode                            : Constant\r\nBit rate                                 : 756 kb/s\r\nChannel(s)                               : 6 channels\r\nChannel positions                        : Front: L C R, Side: L R, LFE\r\nSampling rate                            : 48.0 kHz\r\nFrame rate                               : 93.750 FPS (512 SPF)\r\nBit depth                                : 16 bits\r\nStream size                              : 465 MiB (18%)\r\nLanguage                                 : English","last_updated":"2018-09-29T13:01:53.663Z","parsed":{"xt":"urn:btih:f91040a2071d6ef343bb752fa61ee8e8f915c64d","dn":"The Last Sharknado Its About Time 2018 1080p BluRay x264 DTS MW","tr":["udp://exodus.desync.com:6969","udp://open.demonii.com:1337","udp://tracker.coppersurfer.tk:6969","udp://tracker.leechers-paradise.org:6969","udp://zer0day.ch:1337"],"infoHash":"f91040a2071d6ef343bb752fa61ee8e8f915c64d","infoHashBuffer":{"type":"Buffer","data":[249,16,64,162,7,29,110,243,67,187,117,47,166,30,232,232,249,21,198,77]},"name":"The Last Sharknado Its About Time 2018 1080p BluRay x264 DTS MW","announce":["udp://exodus.desync.com:6969","udp://open.demonii.com:1337","udp://tracker.coppersurfer.tk:6969","udp://tracker.leechers-paradise.org:6969","udp://zer0day.ch:1337"],"urlList":[]}}